<svg width="126" height="33" viewBox="0 0 126 33" fill="none" xmlns="http://www.w3.org/2000/svg">
<g clip-path="url(#clip0_173_961)">
<path d="M73.8948 9.31765L81.0854 6.6L73.8948 3.80471V0L86.2106 5.04706V8.15294L73.8948 13.2V9.31765Z" fill="#A100FF"/>
<path d="M4.78091 32.9997C2.15912 32.9997 0 31.7123 0 28.8345V28.683C0 25.1994 3.08446 23.9877 6.86291 23.9877H8.63648V23.3061C8.63648 21.8672 8.01958 21.0341 6.47736 21.0341C5.08935 21.0341 4.39535 21.7915 4.31824 22.8517H0.462668C0.771114 19.671 3.31579 18.1563 6.70869 18.1563C10.1787 18.1563 12.7234 19.5952 12.7234 23.1546V32.6968H8.7907V31.0307C8.01958 32.0909 6.70869 32.9997 4.78091 32.9997ZM8.63648 28.0014V26.6383H7.01714C5.01224 26.6383 4.00979 27.1684 4.00979 28.4558V28.6073C4.00979 29.5918 4.62668 30.2734 6.01469 30.2734C7.40269 30.1977 8.63648 29.4403 8.63648 28.0014ZM21.8996 32.9997C17.8898 32.9997 14.9596 30.5763 14.9596 25.7295V25.5023C14.9596 20.6555 18.0441 18.0806 21.8996 18.0806C25.2154 18.0806 27.9143 19.7467 28.2228 23.4576H24.3672C24.1359 22.0944 23.3648 21.1856 21.9767 21.1856C20.2803 21.1856 19.0465 22.5488 19.0465 25.3508V25.8052C19.0465 28.683 20.1261 29.9705 21.9767 29.9705C23.3648 29.9705 24.3672 28.9859 24.5985 27.3956H28.2999C28.0685 30.7278 25.8323 32.9997 21.8996 32.9997ZM37.0135 32.9997C33.0037 32.9997 30.0734 30.5763 30.0734 25.7295V25.5023C30.0734 20.6555 33.1579 18.0806 37.0135 18.0806C40.3293 18.0806 43.0282 19.7467 43.3366 23.4576H39.481C39.2497 22.0944 38.4786 21.1856 37.0906 21.1856C35.3941 21.1856 34.1603 22.5488 34.1603 25.3508V25.8052C34.1603 28.683 35.2399 29.9705 37.0906 29.9705C38.4786 29.9705 39.481 28.9859 39.7124 27.3956H43.4137C43.1824 30.7278 40.9461 32.9997 37.0135 32.9997ZM52.2044 32.9997C48.0404 32.9997 45.1873 30.5763 45.1873 25.8052V25.5023C45.1873 20.7312 48.1946 18.0806 52.1273 18.0806C55.7515 18.0806 58.7589 20.0496 58.7589 24.8207V26.5625H49.2742C49.4284 29.1374 50.5851 30.1219 52.2815 30.1219C53.8238 30.1219 54.672 29.2889 54.9804 28.3044H58.7589C58.2962 30.955 55.9829 32.9997 52.2044 32.9997ZM49.3513 23.9119H54.7491C54.672 21.7915 53.6695 20.8827 52.0502 20.8827C50.8164 20.9584 49.6597 21.64 49.3513 23.9119ZM61.2264 18.4593H65.3133V20.5798C66.0073 19.2166 67.4725 18.1563 69.7087 18.1563C72.3305 18.1563 74.104 19.7467 74.104 23.1546V32.6968H70.0172V23.7605C70.0172 22.0944 69.3231 21.3371 67.858 21.3371C66.47 21.3371 65.3133 22.1701 65.3133 23.9877V32.6968H61.2264V18.4593ZM81.5839 14.1426V18.4593H84.3599V21.4128H81.5839V28.1529C81.5839 29.2131 82.0465 29.7433 83.049 29.7433C83.6659 29.7433 84.0514 29.6675 84.437 29.5161V32.6211C83.9743 32.7725 83.1261 32.924 82.1236 32.924C78.9621 32.924 77.4969 31.4851 77.4969 28.6073V21.4128H75.8005V18.4593H77.4969V15.8087L81.5839 14.1426ZM99.6279 32.6968H95.6181V30.5763C94.9241 31.9395 93.5361 32.9997 91.377 32.9997C88.7552 32.9997 86.8274 31.4094 86.8274 28.0772V18.4593H90.9143V27.5471C90.9143 29.2131 91.6083 29.9705 92.9963 29.9705C94.3843 29.9705 95.541 29.0617 95.541 27.3199V18.4593H99.6279V32.6968ZM102.635 18.4593H106.722V21.1099C107.57 19.2166 108.958 18.3078 111.118 18.3078V22.2458C108.342 22.2458 106.722 23.0789 106.722 25.4266V32.7725H102.635V18.4593ZM119.368 32.9997C115.204 32.9997 112.351 30.5763 112.351 25.8052V25.5023C112.351 20.7312 115.359 18.0806 119.291 18.0806C122.916 18.0806 125.923 20.0496 125.923 24.8207V26.5625H116.515C116.67 29.1374 117.826 30.1219 119.523 30.1219C121.065 30.1219 121.913 29.2889 122.222 28.3044H126C125.383 30.955 123.147 32.9997 119.368 32.9997ZM116.438 23.9119H121.913C121.836 21.7915 120.834 20.8827 119.214 20.8827C117.98 20.9584 116.824 21.64 116.438 23.9119Z" fill="#1C1C23"/>
</g>
<defs>
<clipPath id="clip0_173_961">
<rect width="126" height="33" fill="white"/>
</clipPath>
</defs>
</svg>
