<svg width="52" height="52" viewBox="0 0 52 52" fill="none" xmlns="http://www.w3.org/2000/svg">
<rect y="52" width="52" height="52" rx="4" transform="rotate(-90 0 52)" fill="#0013FF"/>
<path d="M20.75 17.75V34.25C20.75 34.6642 21.0858 35 21.5 35H33.5C33.9142 35 34.25 34.6642 34.25 34.25V17.75C34.25 17.3358 33.9142 17 33.5 17H21.5C21.0858 17 20.75 17.3358 20.75 17.75Z" stroke="white" stroke-width="1.5" stroke-linecap="round" stroke-linejoin="round"/>
<path d="M23.75 29.75H20.75C19.7554 29.75 18.8016 29.3549 18.0983 28.6517C17.3951 27.9484 17 26.9946 17 26C17 25.0054 17.3951 24.0516 18.0983 23.3483C18.8016 22.6451 19.7554 22.25 20.75 22.25H23.75" stroke="white" stroke-width="1.5" stroke-linecap="round" stroke-linejoin="round"/>
</svg>
