<svg width="52" height="52" viewBox="0 0 52 52" fill="none" xmlns="http://www.w3.org/2000/svg">
<rect y="52" width="52" height="52" rx="4" transform="rotate(-90 0 52)" fill="#0013FF"/>
<path d="M20.75 17.75L20.75 34.25C20.75 34.6642 21.0858 35 21.5 35L33.5 35C33.9142 35 34.25 34.6642 34.25 34.25L34.25 17.75C34.25 17.3358 33.9142 17 33.5 17L21.5 17C21.0858 17 20.75 17.3358 20.75 17.75Z" stroke="white" stroke-width="1.5" stroke-linecap="round" stroke-linejoin="round"/>
<path d="M20.75 22.25L19.25 22.25C18.8522 22.25 18.4706 22.408 18.1893 22.6893C17.908 22.9706 17.75 23.3522 17.75 23.75L17.75 28.25C17.75 28.6478 17.908 29.0294 18.1893 29.3107C18.4706 29.592 18.8522 29.75 19.25 29.75L20.75 29.75" stroke="white" stroke-width="1.5" stroke-linecap="round" stroke-linejoin="round"/>
<path d="M24.875 26L30.125 26" stroke="white" stroke-width="1.5" stroke-linecap="round" stroke-linejoin="round"/>
<path d="M27.5 23.375L27.5 28.625" stroke="white" stroke-width="1.5" stroke-linecap="round" stroke-linejoin="round"/>
</svg>
