<svg width="52" height="52" viewBox="0 0 52 52" fill="none" xmlns="http://www.w3.org/2000/svg">
<rect y="52" width="52" height="52" rx="4" transform="rotate(-90 0 52)" fill="#0013FF"/>
<path d="M30.5 30.5L30.5 27.875" stroke="white" stroke-width="1.5" stroke-linecap="round" stroke-linejoin="round"/>
<path d="M30.5 24.125L30.5 21.5" stroke="white" stroke-width="1.5" stroke-linecap="round" stroke-linejoin="round"/>
<path d="M34.25 17.75L26.75 17.75L26.75 22.25L22.25 28.25L26.75 28.25L22.25 34.25L34.25 34.25" stroke="white" stroke-width="1.5" stroke-linecap="round" stroke-linejoin="round"/>
<path d="M34.25 36.5L34.25 15.5" stroke="white" stroke-width="1.5" stroke-linecap="round" stroke-linejoin="round"/>
<path d="M26.75 17.75L16.8969 19.1562C16.7179 19.1811 16.554 19.2697 16.4351 19.4058C16.3163 19.5418 16.2505 19.7162 16.25 19.8969L16.25 21.6031C16.2505 21.7838 16.3163 21.9582 16.4351 22.0942C16.554 22.2303 16.7179 22.3189 16.8969 22.3437L25.7375 23.6094" stroke="white" stroke-width="1.5" stroke-linecap="round" stroke-linejoin="round"/>
</svg>
