<svg width="94" height="31" viewBox="0 0 94 31" fill="none" xmlns="http://www.w3.org/2000/svg">
<g clip-path="url(#clip0_173_949)">
<path fill-rule="evenodd" clip-rule="evenodd" d="M77.4943 27.4572L74.0003 23.6004L70.5316 27.4572H63.2397L70.3712 19.5859L63.2397 11.7146H70.7594L74.2872 15.5383L77.6884 11.7146H84.9465L77.8488 19.5527L85.0478 27.4572H77.4943ZM49.2383 27.4572V2.65723H63.2397V8.18954H55.1714V11.7146H63.2397V17.0313H55.1714V21.9083H63.2397V27.4572H49.2383Z" fill="#FF6600"/>
<path fill-rule="evenodd" clip-rule="evenodd" d="M43.3748 2.65723V12.7924H43.3077C42.1005 11.4355 40.3278 10.7025 38.5013 10.8051C34.8267 10.837 31.6329 13.3035 30.7172 16.8166C29.5512 13.0408 26.5231 10.7306 22.1026 10.7306C18.4874 10.7306 15.6354 12.3287 14.1423 14.9453V11.6994H6.66014V8.17195H14.8134V2.65723H0V27.4155H6.66014V17.0071H13.2951C13.088 17.8191 12.9866 18.6539 12.9932 19.4912C12.9932 24.6582 16.9859 28.2767 22.0942 28.2767C26.3805 28.2767 29.2073 26.2894 30.7004 22.6626H24.9965C24.4171 23.6798 23.2648 24.242 22.0942 24.0785C20.2355 24.0382 18.7476 22.5437 18.739 20.7084H30.3817C30.885 24.8486 34.1228 28.3429 38.5601 28.3429C40.4611 28.3488 42.2394 27.4167 43.2993 25.8588H43.3664V27.4155H49.2381V2.65723L43.3748 2.65723ZM18.9403 17.0816C19.2187 15.5808 20.5403 14.4885 22.0858 14.4816C23.6685 14.4026 25.0493 15.5319 25.2649 17.0816H18.9403ZM39.8015 23.6479C37.6374 23.6479 36.2953 21.6607 36.2953 19.574C36.2953 17.3549 37.4696 15.2185 39.8015 15.2185C42.1334 15.2185 43.1567 17.3549 43.1567 19.574C43.1567 21.7931 42.1753 23.6479 39.8099 23.6479H39.8015Z" fill="#4D148C"/>
<path fill-rule="evenodd" clip-rule="evenodd" d="M93.3931 24.3999C93.355 23.0248 92.204 21.9369 90.8137 21.9619C89.4233 21.9868 88.313 23.1153 88.3253 24.4909C88.3377 25.8664 89.4681 26.9752 90.8587 26.9757C91.5476 26.9908 92.2119 26.722 92.6926 26.2335C93.1732 25.745 93.427 25.0808 93.3931 24.3999ZM90.199 24.5287V26.2459H89.6522V22.5024H91.0149C91.8134 22.5024 92.178 22.8458 92.178 23.5241C92.1921 23.9117 91.9136 24.2496 91.527 24.314C91.8395 24.3656 91.961 24.6403 92.0304 25.1726C92.0543 25.5288 92.1333 25.8792 92.2648 26.2116H91.6138C91.5073 25.7985 91.4233 25.38 91.3621 24.958C91.3051 24.6676 91.0228 24.4763 90.7285 24.5287H90.199ZM90.8847 24.0479C91.4142 24.0479 91.5704 23.7645 91.5704 23.5241C91.5704 23.2837 91.4229 23.0004 90.8847 23.0004H90.199V24.0565H90.8847V24.0479ZM87.7341 24.3913C87.72 23.1346 88.4744 21.9939 89.6441 21.5033C90.8137 21.0127 92.167 21.2694 93.0703 22.1531C93.9737 23.0368 94.2482 24.3726 93.7653 25.5351C93.2825 26.6975 92.1378 27.4565 90.8674 27.4565C90.0368 27.4752 89.2341 27.1594 88.6434 26.5815C88.0526 26.0036 87.7245 25.2131 87.7341 24.3913Z" fill="#FF6600"/>
</g>
<defs>
<clipPath id="clip0_173_949">
<rect width="94" height="31" fill="white"/>
</clipPath>
</defs>
</svg>
