<svg width="40" height="40" viewBox="0 0 40 40" fill="none" xmlns="http://www.w3.org/2000/svg">
<g clip-path="url(#clip0_173_1133)">
<circle cx="20" cy="20" r="19.5" stroke="#0013FF"/>
<path d="M20 20.625C21.3807 20.625 22.5 19.5057 22.5 18.125C22.5 16.7443 21.3807 15.625 20 15.625C18.6193 15.625 17.5 16.7443 17.5 18.125C17.5 19.5057 18.6193 20.625 20 20.625Z" stroke="#0013FF" stroke-linecap="round" stroke-linejoin="round"/>
<path d="M26.25 18.125C26.25 23.75 20 28.125 20 28.125C20 28.125 13.75 23.75 13.75 18.125C13.75 16.4674 14.4085 14.8777 15.5806 13.7056C16.7527 12.5335 18.3424 11.875 20 11.875C21.6576 11.875 23.2473 12.5335 24.4194 13.7056C25.5915 14.8777 26.25 16.4674 26.25 18.125V18.125Z" stroke="#0013FF" stroke-linecap="round" stroke-linejoin="round"/>
</g>
<defs>
<clipPath id="clip0_173_1133">
<rect width="40" height="40" rx="20" fill="white"/>
</clipPath>
</defs>
</svg>
