<svg width="40" height="40" viewBox="0 0 40 40" fill="none" xmlns="http://www.w3.org/2000/svg">
<g clip-path="url(#clip0_173_1138)">
<circle cx="20" cy="20" r="19.5" stroke="#0013FF"/>
<path d="M17.2266 19.7501C17.8697 21.0783 18.9437 22.1495 20.2734 22.7892C20.3715 22.8357 20.48 22.8558 20.5882 22.8475C20.6965 22.8393 20.8007 22.8031 20.8906 22.7423L22.8437 21.4376C22.93 21.3791 23.0298 21.3434 23.1336 21.3338C23.2374 21.3243 23.342 21.3412 23.4375 21.383L27.0938 22.9533C27.2187 23.0053 27.3231 23.0969 27.3909 23.2141C27.4586 23.3313 27.486 23.4675 27.4688 23.6017C27.3529 24.5062 26.9114 25.3375 26.2269 25.94C25.5424 26.5425 24.6619 26.8749 23.75 26.8751C20.9321 26.8751 18.2296 25.7557 16.237 23.7632C14.2444 21.7706 13.125 19.0681 13.125 16.2501C13.1252 15.3383 13.4577 14.4577 14.0602 13.7732C14.6627 13.0888 15.494 12.6473 16.3984 12.5314C16.5327 12.5142 16.6689 12.5415 16.7861 12.6093C16.9032 12.677 16.9949 12.7814 17.0469 12.9064L18.6172 16.5705C18.658 16.6645 18.6751 16.7671 18.6669 16.8693C18.6588 16.9715 18.6256 17.0701 18.5703 17.1564L17.2656 19.1408C17.2075 19.2305 17.1734 19.3337 17.1666 19.4404C17.1598 19.5471 17.1804 19.6537 17.2266 19.7501V19.7501Z" stroke="#0013FF" stroke-linecap="round" stroke-linejoin="round"/>
</g>
<defs>
<clipPath id="clip0_173_1138">
<rect width="40" height="40" rx="20" fill="white"/>
</clipPath>
</defs>
</svg>
