<svg width="76" height="76" viewBox="0 0 76 76" fill="none" xmlns="http://www.w3.org/2000/svg">
<path d="M47.8035 33.4461L47.0467 34.2527L48.1522 34.2879C56.1666 34.5433 63.1035 35.0931 68.029 35.8272C70.4954 36.1948 72.4364 36.6056 73.751 37.0411C74.4117 37.26 74.8843 37.4756 75.182 37.6773C75.3299 37.7775 75.4154 37.8615 75.4607 37.9233C75.4824 37.9528 75.4921 37.9734 75.4963 37.9848C75.5002 37.9954 75.5 37.9997 75.5 38C75.5 38.0001 75.5 38.0011 75.4997 38.0032C75.4993 38.0056 75.4984 38.0095 75.4963 38.0152C75.4921 38.0266 75.4824 38.0472 75.4607 38.0767C75.4154 38.1384 75.3299 38.2225 75.182 38.3227C74.8843 38.5243 74.4117 38.74 73.751 38.9589C72.4364 39.3944 70.4954 39.8052 68.029 40.1728C63.1035 40.9068 56.1666 41.4567 48.1522 41.712L47.0467 41.7473L47.8035 42.5539C53.29 48.4015 57.8063 53.6954 60.7701 57.6973C62.2542 59.7012 63.3362 61.3642 63.9578 62.6017C64.2702 63.2237 64.4519 63.7104 64.5198 64.0634C64.5535 64.2389 64.5546 64.3588 64.543 64.4345C64.5374 64.4707 64.5297 64.4921 64.5246 64.5031C64.5199 64.5133 64.5167 64.5163 64.5165 64.5165C64.5163 64.5167 64.5133 64.5199 64.5031 64.5246C64.4921 64.5297 64.4707 64.5374 64.4345 64.543C64.3588 64.5546 64.2389 64.5535 64.0634 64.5198C63.7104 64.4519 63.2237 64.2702 62.6017 63.9578C61.3642 63.3362 59.7012 62.2542 57.6973 60.7701C53.6954 57.8063 48.4015 53.29 42.5539 47.8035L41.7473 47.0467L41.712 48.1523C41.4567 56.1666 40.9068 63.1035 40.1728 68.0289C39.8052 70.4954 39.3944 72.4364 38.9589 73.751C38.74 74.4116 38.5243 74.8843 38.3227 75.1819C38.2225 75.3298 38.1384 75.4154 38.0767 75.4607C38.0472 75.4824 38.0266 75.4921 38.0152 75.4963C38.0046 75.5001 38.0003 75.5 38 75.5C37.9997 75.5 37.9954 75.5001 37.9848 75.4963C37.9734 75.4921 37.9528 75.4824 37.9233 75.4607C37.8616 75.4154 37.7775 75.3298 37.6773 75.1819C37.4757 74.8843 37.26 74.4116 37.0411 73.751C36.6056 72.4364 36.1948 70.4954 35.8272 68.0289C35.0931 63.1035 34.5433 56.1666 34.2879 48.1522L34.2527 47.0467L33.4461 47.8035C27.5985 53.29 22.3046 57.8063 18.3027 60.77C16.2987 62.2542 14.6358 63.3362 13.3983 63.9578C12.7763 64.2701 12.2896 64.4519 11.9366 64.5198C11.7611 64.5535 11.6412 64.5546 11.5655 64.543C11.5293 64.5374 11.5079 64.5297 11.4968 64.5246C11.4866 64.5198 11.4837 64.5167 11.4835 64.5165C11.4833 64.5162 11.4801 64.5133 11.4754 64.5031C11.4703 64.4921 11.4625 64.4706 11.457 64.4345C11.4454 64.3588 11.4465 64.2388 11.4802 64.0634C11.5481 63.7103 11.7298 63.2236 12.0422 62.6017C12.6637 61.3642 13.7458 59.7012 15.2299 57.6973C18.1937 53.6954 22.71 48.4015 28.1964 42.5539L28.9533 41.7473L27.8477 41.712C19.8333 41.4567 12.8965 40.9068 7.97102 40.1728C5.50457 39.8052 3.56356 39.3944 2.249 38.9589C1.58834 38.74 1.1157 38.5243 0.818041 38.3227C0.670121 38.2225 0.58457 38.1384 0.539242 38.0767C0.517577 38.0472 0.507911 38.0266 0.503714 38.0152C0.499841 38.0046 0.5 38.0003 0.5 38L0.5 37.9999C0.499994 37.9994 0.49995 37.9951 0.503714 37.9848C0.507911 37.9734 0.517577 37.9528 0.539242 37.9233C0.584569 37.8615 0.67012 37.7775 0.818041 37.6773C1.1157 37.4756 1.58834 37.26 2.249 37.0411C3.56356 36.6056 5.50457 36.1948 7.97102 35.8272C12.8965 35.0931 19.8333 34.5433 27.8477 34.2879L28.9533 34.2527L28.1964 33.4461C22.71 27.5985 18.1937 22.3046 15.2299 18.3027C13.7458 16.2987 12.6637 14.6358 12.0422 13.3983C11.7298 12.7763 11.5481 12.2896 11.4802 11.9366C11.4464 11.7611 11.4454 11.6412 11.457 11.5655C11.4625 11.5293 11.4702 11.5079 11.4754 11.4969C11.48 11.4869 11.4831 11.4839 11.4835 11.4835L11.4835 11.4835L11.4835 11.4835C11.4839 11.4831 11.4869 11.48 11.4968 11.4754C11.5079 11.4703 11.5293 11.4625 11.5655 11.457C11.6412 11.4454 11.7611 11.4465 11.9365 11.4802C12.2896 11.5481 12.7763 11.7298 13.3982 12.0422C14.6358 12.6638 16.2987 13.7458 18.3027 15.2299C22.3046 18.1937 27.5985 22.71 33.4461 28.1965L34.2527 28.9533L34.2879 27.8478C34.5433 19.8334 35.0931 12.8965 35.8272 7.97103C36.1948 5.50458 36.6056 3.56357 37.0411 2.24901C37.26 1.58834 37.4757 1.1157 37.6773 0.818042C37.7775 0.670121 37.8616 0.58457 37.9233 0.539243C37.9528 0.517577 37.9734 0.507911 37.9848 0.503714C37.9951 0.49995 37.9994 0.499994 38 0.5L38 0.5L38 0.5C38.0006 0.499994 38.0049 0.49995 38.0152 0.503714C38.0266 0.507911 38.0472 0.517577 38.0767 0.539242C38.1384 0.584569 38.2225 0.67012 38.3227 0.818041C38.5243 1.1157 38.74 1.58834 38.9589 2.249C39.3944 3.56356 39.8052 5.50457 40.1728 7.97102C40.9068 12.8965 41.4567 19.8333 41.712 27.8477L41.7473 28.9533L42.5539 28.1964C48.4015 22.71 53.6954 18.1936 57.6973 15.2299C59.7012 13.7458 61.3642 12.6637 62.6017 12.0422C63.2237 11.7298 63.7104 11.5481 64.0634 11.4802C64.2389 11.4464 64.3588 11.4454 64.4345 11.457C64.4707 11.4625 64.4921 11.4702 64.5031 11.4754C64.5071 11.4772 64.5099 11.4788 64.5119 11.48C64.5152 11.4821 64.5164 11.4833 64.5165 11.4835C64.5166 11.4835 64.5169 11.4838 64.5174 11.4845C64.5187 11.486 64.5212 11.4896 64.5246 11.4968C64.5297 11.5079 64.5375 11.5293 64.543 11.5655C64.5546 11.6412 64.5535 11.7611 64.5198 11.9365C64.4519 12.2896 64.2702 12.7763 63.9578 13.3982C63.3362 14.6357 62.2542 16.2987 60.7701 18.3027C57.8063 22.3046 53.29 27.5985 47.8035 33.4461Z" stroke="#0013FF"/>
</svg>
