<svg width="103" height="34" viewBox="0 0 103 34" fill="none" xmlns="http://www.w3.org/2000/svg">
<g clip-path="url(#clip0_173_967)">
<path d="M12.8593 0H13.7878C17.0113 0.0675573 20.1822 1.31737 22.4597 3.52987C21.6188 4.35744 20.7603 5.15124 19.937 5.97882C18.6581 4.86412 17.1164 4.00277 15.4346 3.69876C12.9469 3.19208 10.2666 3.64809 8.18181 5.01613C5.90436 6.45172 4.3627 8.88378 4.02984 11.4847C3.66195 14.0519 4.41526 16.7542 6.14962 18.7471C7.81391 20.6894 10.3541 21.9054 12.982 21.9899C15.4346 22.125 17.9924 21.3988 19.7793 19.7436C21.1808 18.5782 21.829 16.8049 22.0392 15.0822C19.1311 15.0822 16.223 15.099 13.3148 15.0822V11.603H25.5605C26.1912 15.3355 25.2802 19.5409 22.337 22.2094C20.3749 24.1011 17.6595 25.2157 14.8915 25.4353C12.2111 25.6886 9.44317 25.1989 7.0606 23.949C4.20503 22.4797 1.92758 19.9969 0.806377 17.0751C-0.244754 14.3897 -0.262273 11.3496 0.718782 8.64733C1.61224 6.18149 3.32909 4.00277 5.53646 2.48273C7.65624 0.97958 10.2315 0.152004 12.8593 0Z" fill="#3780FF"/>
<path d="M82.0186 0.944336H85.8334V25.4956C84.5677 25.4956 83.2842 25.5128 82.0186 25.4784C82.0364 17.3118 82.0186 9.12809 82.0186 0.944336Z" fill="#38B137"/>
<path d="M33.6142 9.5995C35.9403 9.1622 38.4601 9.65198 40.3809 11.0339C42.1254 12.2583 43.3413 14.1825 43.7114 16.2815C44.1872 18.7129 43.588 21.3717 42.0021 23.2959C40.2928 25.4474 37.491 26.6019 34.7596 26.427C32.2573 26.287 29.8256 25.0451 28.3454 23.016C26.6713 20.777 26.266 17.6984 27.1823 15.0746C28.0986 12.2583 30.689 10.1068 33.6142 9.5995ZM34.1429 12.923C33.1913 13.1679 32.3102 13.7102 31.6758 14.4798C29.9665 16.5089 30.0723 19.8149 31.9578 21.7041C33.0327 22.7886 34.6539 23.2959 36.1517 22.9985C37.5438 22.7536 38.7597 21.8265 39.4293 20.6021C40.5923 18.5205 40.2575 15.6518 38.4778 14.025C37.3324 12.9755 35.6583 12.5382 34.1429 12.923Z" fill="#FA3913"/>
<path d="M51.7342 9.60086C54.397 9.09337 57.3067 9.82835 59.2994 11.6833C62.5442 14.5707 62.8969 19.9781 60.1283 23.3031C58.453 25.403 55.7372 26.558 53.0568 26.4355C50.4997 26.3655 47.978 25.1055 46.4614 23.0231C44.7508 20.7306 44.3805 17.5807 45.3504 14.9032C46.3203 12.1733 48.8597 10.0908 51.7342 9.60086ZM52.2632 12.9258C51.3109 13.1708 50.4292 13.7133 49.7943 14.4658C48.1014 16.4607 48.172 19.7156 49.9883 21.6231C51.064 22.7606 52.7393 23.3206 54.2912 23.0056C55.6667 22.7431 56.9011 21.8331 57.5713 20.6081C58.7175 18.5082 58.3824 15.6382 56.5837 14.0108C55.4375 12.9608 53.7622 12.5408 52.2632 12.9258Z" fill="#FCBD06"/>
<path d="M67.0246 10.6129C69.0265 9.35667 71.6898 9.00773 73.8483 10.0894C74.5272 10.386 75.0842 10.892 75.6239 11.398C75.6413 10.9269 75.6239 10.4384 75.6413 9.94987C76.8075 9.96732 77.9738 9.94987 79.1575 9.96732V25.3556C79.1401 27.6761 78.5483 30.1361 76.8772 31.8285C75.0494 33.6953 72.2468 34.2711 69.7228 33.8873C67.0246 33.486 64.6747 31.5145 63.6302 29.0195C64.6747 28.5136 65.7713 28.1123 66.8506 27.6412C67.4598 29.0719 68.6957 30.2932 70.245 30.5723C71.7942 30.8515 73.5872 30.4676 74.5968 29.1766C75.6761 27.8506 75.6761 26.0361 75.6239 24.4135C74.8231 25.1986 73.9005 25.8965 72.7865 26.1582C70.3668 26.8386 67.7035 26.0012 65.8409 24.3612C63.961 22.7211 62.8469 20.1913 62.9513 17.6789C63.0036 14.8351 64.605 12.0959 67.0246 10.6129ZM70.628 12.8461C69.5661 13.0206 68.5739 13.6138 67.895 14.4338C66.2587 16.3878 66.2587 19.5109 67.9124 21.4301C68.8524 22.5641 70.3668 23.1922 71.8291 23.0352C73.2042 22.8956 74.475 22.0233 75.1539 20.8194C76.3027 18.7781 76.1113 16.004 74.562 14.2244C73.6046 13.1252 72.0728 12.5844 70.628 12.8461Z" fill="#3780FF"/>
<path d="M89.3672 11.5185C91.4095 9.55976 94.5579 8.89519 97.1788 9.92702C99.6635 10.8889 101.246 13.3198 102.046 15.8207C98.3531 17.3947 94.6771 18.9512 90.984 20.5252C91.4946 21.522 92.2774 22.4314 93.3326 22.7987C94.8132 23.3408 96.5831 23.1485 97.8255 22.1341C98.319 21.7494 98.7105 21.2422 99.0849 20.7525C100.021 21.3996 100.957 22.0292 101.893 22.6763C100.566 24.7224 98.3361 26.1565 95.9364 26.3839C93.2815 26.7162 90.4564 25.6668 88.7375 23.5332C85.9125 20.1754 86.1848 14.544 89.3672 11.5185ZM91.1882 14.7539C90.6096 15.6108 90.3713 16.6602 90.3884 17.692C92.8561 16.6427 95.3238 15.5934 97.7915 14.5265C97.383 13.5472 96.3959 12.9526 95.3918 12.7952C93.7751 12.4979 92.0902 13.3898 91.1882 14.7539Z" fill="#FA3913"/>
</g>
<defs>
<clipPath id="clip0_173_967">
<rect width="103" height="34" fill="white"/>
</clipPath>
</defs>
</svg>
