<svg width="150" height="150" viewBox="0 0 150 150" fill="none" xmlns="http://www.w3.org/2000/svg">
<path d="M94.7041 66.3451L93.9473 67.1517L95.0528 67.187C110.881 67.6912 124.593 68.7774 134.339 70.23C139.217 70.9569 143.08 71.7725 145.714 72.6453C147.035 73.0828 148.017 73.5252 148.658 73.96C149.322 74.4096 149.5 74.7648 149.5 75C149.5 75.2351 149.322 75.5904 148.658 76.0399C148.017 76.4748 147.035 76.9171 145.714 77.3547C143.08 78.2274 139.217 79.0431 134.339 79.7699C124.593 81.2225 110.881 82.3087 95.0528 82.813L93.9473 82.8482L94.7041 83.6548C105.54 95.2035 114.467 105.667 120.332 113.586C123.267 117.549 125.422 120.858 126.668 123.338C127.292 124.581 127.673 125.588 127.82 126.349C127.971 127.136 127.846 127.513 127.679 127.679C127.513 127.846 127.136 127.971 126.349 127.82C125.588 127.673 124.581 127.292 123.338 126.668C120.858 125.422 117.549 123.267 113.586 120.332C105.667 114.467 95.2035 105.54 83.6549 94.7041L82.8482 93.9473L82.813 95.0528C82.3087 110.881 81.2225 124.593 79.7699 134.339C79.0431 139.217 78.2274 143.08 77.3547 145.714C76.9172 147.035 76.4748 148.017 76.04 148.658C75.5904 149.322 75.2351 149.5 75 149.5C74.7649 149.5 74.4096 149.322 73.96 148.658C73.5252 148.017 73.0828 147.035 72.6453 145.714C71.7725 143.08 70.9569 139.217 70.2301 134.339C68.7775 124.593 67.6912 110.881 67.187 95.0528L67.1518 93.9472L66.3451 94.7041C54.7965 105.54 44.3328 114.467 36.4135 120.332C32.4509 123.267 29.1423 125.422 26.6625 126.667C25.4193 127.292 24.4123 127.673 23.6509 127.82C22.8638 127.971 22.4868 127.846 22.3205 127.679C22.1543 127.513 22.0288 127.136 22.1802 126.349C22.3266 125.588 22.7081 124.581 23.3324 123.337C24.578 120.858 26.7331 117.549 29.6678 113.586C35.5327 105.667 44.4603 95.2035 55.2958 83.6548L56.0527 82.8482L54.9471 82.813C39.1191 82.3087 25.4074 81.2225 15.6605 79.7699C10.7833 79.043 6.91996 78.2274 4.28571 77.3546C2.9652 76.9171 1.98338 76.4748 1.34151 76.0399C0.677885 75.5904 0.5 75.2351 0.5 75C0.5 74.7648 0.677886 74.4096 1.34151 73.96C1.98338 73.5252 2.9652 73.0828 4.28571 72.6453C6.91996 71.7725 10.7833 70.9569 15.6605 70.23C25.4074 68.7774 39.1191 67.6912 54.9471 67.187L56.0527 67.1517L55.2958 66.3451C44.4603 54.7965 35.5327 44.3327 29.6678 36.4135C26.7331 32.4509 24.578 29.1423 23.3324 26.6625C22.708 25.4193 22.3266 24.4123 22.1802 23.651C22.0288 22.8638 22.1542 22.4868 22.3205 22.3205C22.4868 22.1543 22.8638 22.0288 23.6509 22.1802C24.4123 22.3266 25.4193 22.7081 26.6624 23.3324C29.1423 24.578 32.4508 26.7331 36.4135 29.6678C44.3327 35.5328 54.7965 44.4604 66.3451 55.2959L67.1518 56.0527L67.187 54.9472C67.6912 39.1192 68.7775 25.4074 70.2301 15.6605C70.9569 10.7834 71.7725 6.91997 72.6453 4.28572C73.0828 2.9652 73.5252 1.98339 73.96 1.34151C74.4096 0.677886 74.7649 0.5 75 0.5C75.2351 0.5 75.5904 0.677885 76.04 1.34151C76.4748 1.98338 76.9172 2.9652 77.3547 4.28571C78.2274 6.91996 79.0431 10.7833 79.7699 15.6605C81.2225 25.4074 82.3087 39.1191 82.813 54.9471L82.8482 56.0527L83.6549 55.2958C95.2035 44.4603 105.667 35.5327 113.586 29.6678C117.549 26.733 120.858 24.578 123.338 23.3324C124.581 22.708 125.588 22.3266 126.349 22.1802C127.136 22.0288 127.513 22.1542 127.679 22.3205C127.846 22.4868 127.971 22.8638 127.82 23.6509C127.673 24.4123 127.292 25.4193 126.668 26.6624C125.422 29.1423 123.267 32.4508 120.332 36.4135C114.467 44.3327 105.54 54.7965 94.7041 66.3451Z" stroke="white"/>
</svg>
