<svg width="40" height="40" viewBox="0 0 40 40" fill="none" xmlns="http://www.w3.org/2000/svg">
<g clip-path="url(#clip0_173_735)">
<circle cx="20" cy="20" r="19.5" stroke="#0013FF"/>
<path d="M20 24.0625C21.7259 24.0625 23.125 22.6634 23.125 20.9375C23.125 19.2116 21.7259 17.8125 20 17.8125C18.2741 17.8125 16.875 19.2116 16.875 20.9375C16.875 22.6634 18.2741 24.0625 20 24.0625Z" stroke="#0013FF" stroke-linecap="round" stroke-linejoin="round"/>
<path d="M25.3125 19.0625C26.0404 19.0613 26.7586 19.2302 27.4096 19.5557C28.0607 19.8813 28.6267 20.3544 29.0625 20.9375" stroke="#0013FF" stroke-linecap="round" stroke-linejoin="round"/>
<path d="M10.9375 20.9375C11.3733 20.3544 11.9393 19.8813 12.5904 19.5557C13.2414 19.2302 13.9596 19.0613 14.6875 19.0625" stroke="#0013FF" stroke-linecap="round" stroke-linejoin="round"/>
<path d="M15.5 26.875C15.9116 26.0321 16.5516 25.3217 17.3472 24.8248C18.1428 24.3279 19.062 24.0645 20 24.0645C20.938 24.0645 21.8572 24.3279 22.6528 24.8248C23.4484 25.3217 24.0884 26.0321 24.5 26.875" stroke="#0013FF" stroke-linecap="round" stroke-linejoin="round"/>
<path d="M14.6876 19.0625C14.2131 19.063 13.7483 18.9284 13.3474 18.6745C12.9465 18.4206 12.6262 18.0579 12.4238 17.6287C12.2215 17.1996 12.1454 16.7216 12.2046 16.2509C12.2637 15.7801 12.4556 15.3358 12.7579 14.97C13.0601 14.6043 13.4602 14.332 13.9114 14.1852C14.3626 14.0384 14.8463 14.023 15.306 14.1408C15.7656 14.2587 16.1822 14.5049 16.5071 14.8507C16.832 15.1965 17.0518 15.6277 17.1407 16.0937" stroke="#0013FF" stroke-linecap="round" stroke-linejoin="round"/>
<path d="M22.8594 16.0937C22.9483 15.6277 23.1681 15.1965 23.493 14.8507C23.8179 14.5049 24.2345 14.2587 24.6941 14.1408C25.1538 14.023 25.6375 14.0384 26.0887 14.1852C26.5399 14.332 26.94 14.6043 27.2422 14.97C27.5445 15.3358 27.7364 15.7801 27.7955 16.2509C27.8547 16.7216 27.7786 17.1996 27.5763 17.6287C27.3739 18.0579 27.0536 18.4206 26.6527 18.6745C26.2518 18.9284 25.787 19.063 25.3125 19.0625" stroke="#0013FF" stroke-linecap="round" stroke-linejoin="round"/>
</g>
<defs>
<clipPath id="clip0_173_735">
<rect width="40" height="40" rx="20" fill="white"/>
</clipPath>
</defs>
</svg>
