<svg width="40" height="40" viewBox="0 0 40 40" fill="none" xmlns="http://www.w3.org/2000/svg">
<g clip-path="url(#clip0_173_728)">
<circle cx="20" cy="20" r="19.5" stroke="#0013FF"/>
<path d="M18.4375 22.5C21.0263 22.5 23.125 20.4013 23.125 17.8125C23.125 15.2237 21.0263 13.125 18.4375 13.125C15.8487 13.125 13.75 15.2237 13.75 17.8125C13.75 20.4013 15.8487 22.5 18.4375 22.5Z" stroke="#0013FF" stroke-miterlimit="10"/>
<path d="M11.7344 25.6249C12.5557 24.646 13.5814 23.8589 14.7394 23.3189C15.8975 22.7789 17.1597 22.499 18.4375 22.499C19.7153 22.499 20.9775 22.7789 22.1356 23.3189C23.2936 23.8589 24.3193 24.646 25.1406 25.6249" stroke="#0013FF" stroke-linecap="round" stroke-linejoin="round"/>
<path d="M27.1875 21.875C27.8779 21.875 28.4375 21.3154 28.4375 20.625C28.4375 19.9346 27.8779 19.375 27.1875 19.375C26.4971 19.375 25.9375 19.9346 25.9375 20.625C25.9375 21.3154 26.4971 21.875 27.1875 21.875Z" stroke="#0013FF" stroke-linecap="round" stroke-linejoin="round"/>
<path d="M27.1875 19.375V18.4375" stroke="#0013FF" stroke-linecap="round" stroke-linejoin="round"/>
<path d="M26.1016 20L25.2969 19.5312" stroke="#0013FF" stroke-linecap="round" stroke-linejoin="round"/>
<path d="M26.1016 21.25L25.2969 21.7188" stroke="#0013FF" stroke-linecap="round" stroke-linejoin="round"/>
<path d="M27.1875 21.875V22.8125" stroke="#0013FF" stroke-linecap="round" stroke-linejoin="round"/>
<path d="M28.2731 21.25L29.0778 21.7188" stroke="#0013FF" stroke-linecap="round" stroke-linejoin="round"/>
<path d="M28.2731 20L29.0778 19.5312" stroke="#0013FF" stroke-linecap="round" stroke-linejoin="round"/>
</g>
<defs>
<clipPath id="clip0_173_728">
<rect width="40" height="40" rx="20" fill="white"/>
</clipPath>
</defs>
</svg>
