<svg width="152" height="19" viewBox="0 0 152 19" fill="none" xmlns="http://www.w3.org/2000/svg">
<g clip-path="url(#clip0_173_970)">
<path d="M129.83 10.1726H136.479L133.124 5.04584L129.83 10.1726ZM118.851 18.2085V15.9781L121.17 15.7216C121.971 15.6227 122.311 14.9083 122.41 14.745L128.187 5.60027C128.656 4.88135 128.198 4.24985 127.593 4.18428L124.558 3.83689V1.5835H137.725C138.464 1.5835 138.932 2.07236 139.234 2.49682L146.924 13.9295C147.53 14.8416 147.999 15.5617 148.772 15.6606L151.192 15.924V18.2085H136.381V15.9551L138.262 15.7262C139.169 15.6296 139.908 15.2362 139.169 14.1584L138.464 13.1116H127.949L127.144 14.3873C126.642 15.1695 127.144 15.6296 127.917 15.7262L129.798 15.9551V18.2085H118.851Z" fill="#CC0000"/>
<path d="M106.601 15.005H102.204V4.75022H106.601C110.794 4.75022 112.555 5.6992 112.555 9.87817C112.555 14.0928 110.794 15.005 106.601 15.005ZM109.237 1.5835H92.183L92.1795 3.83689L94.3164 4.0497C95.1169 4.16242 95.4397 4.71801 95.4397 5.46684V14.4183C95.4397 15.0383 95.1681 15.6296 94.4594 15.7262L92.1699 16.0138V18.2016L109.237 18.2085C117.085 18.2085 120.468 14.5172 120.468 9.65156C120.468 5.27474 117.085 1.5835 109.237 1.5835Z" fill="#CC0000"/>
<path d="M0.808105 18.2085H14.3434V15.9862L12.0238 15.7262C11.491 15.6606 10.9604 15.3351 10.9604 14.2205V11.5449H21.3792V14.0928C21.3792 14.8405 21.246 15.5617 20.3509 15.6606L17.9939 15.924V18.2085H31.5315V15.924L29.1418 15.6606C28.6791 15.5974 28.1474 15.2362 28.1474 14.2883V5.63248C28.1474 4.75022 28.4781 4.16242 29.1746 4.09801L31.5315 3.83689V1.5835H17.9939V3.80469L20.3509 4.09801C21.1466 4.19578 21.3792 4.81693 21.3792 5.63248V8.21256H10.9604V5.60027C10.9604 4.62024 11.3589 4.16242 12.0554 4.09801L14.3434 3.83689V1.5835H0.839656V3.83689L3.09729 4.09801C3.99473 4.19578 4.22493 4.84914 4.19221 5.6992V14.1239C4.19221 15.0717 3.92695 15.6296 3.06457 15.7262L0.808105 15.9862V18.2085Z" fill="#CC0000"/>
<path d="M46.4876 3.26153C42.5443 3.26153 40.2983 4.6941 40.2983 9.08675C40.2983 13.5462 42.5443 14.9823 46.4876 14.9823C50.4333 14.9823 52.6793 13.5462 52.6793 9.08675C52.6793 4.6941 50.4333 3.26153 46.4876 3.26153ZM32.3411 9.05392C32.3411 3.72929 36.7288 0.000164032 46.5223 0.000164032C56.2512 0.000164032 60.6389 3.72929 60.6389 9.05392C60.6389 14.5134 56.2512 18.2085 46.5223 18.2085C36.7288 18.2085 32.3411 14.5134 32.3411 9.05392Z" fill="#CC0000"/>
<path d="M60.6384 18.2085H71.5366V15.9862L69.195 15.7262C68.5251 15.6606 68.1248 15.1108 68.1248 14.3528V5.8936L77.1864 17.5551C77.4842 17.9474 78.0529 18.2085 78.5874 18.2085H87.1451V5.60027C87.1451 5.00903 87.3064 4.19923 88.1823 4.09801L90.5533 3.83689V1.5835H79.6575V3.80469L82.0321 4.09801C82.8703 4.19693 83.0669 4.88135 83.0669 5.66469V13.8972L74.0748 2.30127C73.7416 1.87682 73.3072 1.5835 72.6715 1.5835H60.6384V3.83689L62.9106 4.09801C63.7111 4.21419 64.0137 4.61218 64.0137 5.6992V14.1239C64.0137 15.1234 63.7347 15.6043 62.8765 15.7262L60.6384 15.9862V18.2085Z" fill="#CC0000"/>
</g>
<defs>
<clipPath id="clip0_173_970">
<rect width="152" height="19" fill="white"/>
</clipPath>
</defs>
</svg>
