<svg width="96" height="38" viewBox="0 0 96 38" fill="none" xmlns="http://www.w3.org/2000/svg">
<path d="M7.96357 1.26709H1.14111V8.11635H7.96357V1.26709Z" fill="#00C7FD"/>
<path d="M7.79372 36.9521V12.285H1.33545V36.9521H7.79372ZM50.7194 37.1959V31.151C49.7725 31.151 48.9713 31.1022 48.3886 31.0047C47.7087 30.9072 47.1989 30.6635 46.859 30.3222C46.5191 29.981 46.3006 29.4935 46.1792 28.8598C46.082 28.2504 46.0335 27.446 46.0335 26.4711V17.8425H50.7194V12.285H46.0335V2.65708H39.5509V26.5198C39.5509 28.5429 39.7209 30.2491 40.0608 31.6141C40.4007 32.9547 40.9834 34.0516 41.7846 34.8803C42.5858 35.709 43.6541 36.294 44.9409 36.6596C46.252 37.0253 47.903 37.1959 49.8696 37.1959H50.7194ZM87.818 36.9521V0.755859H81.3355V36.9521H87.818ZM33.3112 14.6981C31.5145 12.7482 28.9895 11.7732 25.7846 11.7732C24.2307 11.7732 22.8226 12.09 21.5358 12.7238C20.2732 13.3575 19.1807 14.235 18.3309 15.3562L17.9667 15.8194V15.405V12.285H11.5813V36.9521H18.0153V23.8142V24.7161C18.0153 24.5698 18.0153 24.4236 18.0153 24.2773C18.0881 21.9618 18.6465 20.2555 19.7148 19.1587C20.8559 17.9887 22.2399 17.4037 23.818 17.4037C25.6875 17.4037 27.12 17.9887 28.0669 19.1099C28.9895 20.2312 29.4751 21.8155 29.4751 23.8386V23.8874V36.9278H36.0062V22.9367C36.0304 19.4268 35.1078 16.6481 33.3112 14.6981ZM77.9849 24.5698C77.9849 22.7905 77.6693 21.133 77.0623 19.573C76.4311 18.0374 75.557 16.6725 74.4644 15.5025C73.3476 14.3325 72.0122 13.4307 70.4584 12.7725C68.9045 12.1144 67.1807 11.7976 65.3112 11.7976C63.5388 11.7976 61.8635 12.1388 60.3097 12.7969C58.7558 13.4794 57.3962 14.3813 56.255 15.5269C55.1139 16.6725 54.1913 18.0374 53.5358 19.5974C52.8559 21.1574 52.5403 22.8392 52.5403 24.6186C52.5403 26.3979 52.8559 28.0798 53.4872 29.6398C54.1185 31.1997 55.0168 32.5647 56.1336 33.7103C57.2505 34.8559 58.6344 35.7822 60.2368 36.4403C61.8392 37.1228 63.6116 37.464 65.5054 37.464C70.9925 37.464 74.3916 34.9534 76.4311 32.6135L71.7694 29.0548C70.7983 30.2247 68.4675 31.8091 65.554 31.8091C63.733 31.8091 62.2277 31.3947 61.0866 30.5416C59.9455 29.7129 59.1685 28.5429 58.7558 27.1048L58.6829 26.8854H77.9849V24.5698ZM58.7315 22.303C58.7315 20.4993 60.7952 17.355 65.2383 17.3306C69.6814 17.3306 71.7694 20.4749 71.7694 22.2786L58.7315 22.303Z" fill="#0068B5"/>
<path d="M95.199 33.7344C95.0776 33.442 94.9077 33.1982 94.6892 32.9788C94.4706 32.7595 94.2278 32.5888 93.9365 32.467C93.6451 32.3451 93.3295 32.272 93.0139 32.272C92.674 32.272 92.3826 32.3451 92.0913 32.467C91.7999 32.5888 91.5571 32.7595 91.3386 32.9788C91.1201 33.1982 90.9502 33.442 90.8288 33.7344C90.7074 34.0269 90.6345 34.3438 90.6345 34.6607C90.6345 35.0019 90.7074 35.2944 90.8288 35.5869C90.9502 35.8794 91.1201 36.1232 91.3386 36.3425C91.5571 36.5619 91.7999 36.7325 92.0913 36.8544C92.3826 36.9763 92.6983 37.0494 93.0139 37.0494C93.3538 37.0494 93.6451 36.9763 93.9365 36.8544C94.2278 36.7325 94.4706 36.5619 94.6892 36.3425C94.9077 36.1232 95.0776 35.8794 95.199 35.5869C95.3204 35.2944 95.3932 34.9776 95.3932 34.6607C95.3932 34.3438 95.3204 34.0269 95.199 33.7344ZM94.8105 35.4407C94.7134 35.6844 94.5678 35.9038 94.3978 36.0744C94.2278 36.245 94.0093 36.3913 93.7665 36.4888C93.5238 36.5863 93.281 36.635 92.9896 36.635C92.7225 36.635 92.4555 36.5863 92.2127 36.4888C91.9699 36.3913 91.7514 36.245 91.5814 36.0744C91.4115 35.9038 91.2658 35.6844 91.1687 35.4407C91.0716 35.1969 91.023 34.9532 91.023 34.6607C91.023 34.3926 91.0716 34.1244 91.1687 33.8807C91.2658 33.637 91.4115 33.4176 91.5814 33.247C91.7514 33.0763 91.9699 32.9301 92.2127 32.8326C92.4555 32.7351 92.6983 32.6863 92.9896 32.6863C93.2567 32.6863 93.5238 32.7351 93.7665 32.8326C94.0093 32.9301 94.2278 33.0763 94.3978 33.247C94.5678 33.4176 94.7134 33.637 94.8105 33.8807C94.9077 34.1244 94.9562 34.3682 94.9562 34.6607C94.9805 34.9532 94.9077 35.1969 94.8105 35.4407ZM93.4509 34.8557C93.6451 34.8313 93.7908 34.7582 93.9122 34.6363C94.0336 34.5144 94.1065 34.3438 94.1065 34.1001C94.1065 33.8319 94.0336 33.637 93.8637 33.4907C93.718 33.3445 93.4509 33.2713 93.1353 33.2713H92.067V36.0257H92.5769V34.9044H92.941L93.6209 36.0257H94.155L93.4509 34.8557ZM93.1838 34.4657C93.111 34.4657 93.0382 34.4657 92.941 34.4657H92.5769V33.6857H92.941C93.0139 33.6857 93.0867 33.6857 93.1838 33.6857C93.2567 33.6857 93.3295 33.7101 93.4024 33.7344C93.4752 33.7588 93.5237 33.8076 93.548 33.8563C93.5723 33.9051 93.5966 33.9782 93.5966 34.0757C93.5966 34.1732 93.5723 34.2463 93.548 34.2951C93.4995 34.3438 93.4509 34.3926 93.4024 34.4169C93.3295 34.4413 93.2567 34.4657 93.1838 34.4657Z" fill="#0068B5"/>
</svg>
