<svg width="103" height="37" viewBox="0 0 103 37" fill="none" xmlns="http://www.w3.org/2000/svg">
<g clip-path="url(#clip0_173_964)">
<path d="M0 17.0298C0 27.7696 9.0508 36.075 19.6636 36.075C30.2751 36.075 39.3273 27.7696 39.3273 17.0298C39.3273 7.18017 32.2573 0 24.4279 0C22.6479 0 20.8963 0.372729 19.6636 0.864345C18.4303 0.372729 16.6767 0 14.9 0C7.0686 0 0 7.18017 0 17.0298ZM23.1668 12.0854C23.1668 14.1714 21.7466 15.8153 19.6643 15.8153C17.5833 15.8153 16.1618 14.1714 16.1618 12.0854C16.1618 9.2411 18.1553 6.71683 19.6643 5.84863C21.174 6.71747 23.1668 9.2411 23.1668 12.0854ZM4.83456 16.9386C4.83456 9.52643 10.3504 4.46182 14.6853 4.65011C12.6308 6.63457 11.3862 9.52579 11.3862 12.3213C11.3862 17.134 15.3241 20.5084 19.6636 20.5084C24.0012 20.5084 27.9417 17.134 27.9417 12.3213C27.9417 9.52579 26.6971 6.63457 24.6427 4.65011C28.9775 4.46182 34.494 9.52643 34.494 16.9386C34.494 25.0532 27.7793 31.3844 19.6643 31.3844C11.5486 31.3838 4.83456 25.0532 4.83456 16.9386Z" fill="#007BC2"/>
<path d="M57.4095 8.32471V12.1643H59.6224V19.225L53.6786 8.32471H46.8184V12.1643H49.0306V23.9121H46.8184V27.7497H55.8915V23.9121H53.6786V16.8507L59.6224 27.7497H64.2704V12.1643H66.482V8.32471H57.4095Z" fill="#231F20"/>
<path d="M84.2723 15.7867V8.32471H67.4177V15.7867H71.2442V12.1647H73.3036V23.9137H70.5084V27.7497H81.1823V23.9137H78.3864V12.1647H80.4471V15.7867H84.2723Z" fill="#231F20"/>
<path d="M103 15.7867V8.32471H86.1455V15.7867H89.9698V12.1647H92.0301V23.9137H89.2352V27.7497H99.9077V23.9137H97.1142V12.1647H99.1731V15.7867H103Z" fill="#231F20"/>
</g>
<defs>
<clipPath id="clip0_173_964">
<rect width="103" height="37" fill="white"/>
</clipPath>
</defs>
</svg>
