<svg width="277" height="112" viewBox="0 0 277 112" fill="none" xmlns="http://www.w3.org/2000/svg">
<path d="M115.795 45.8571L111.561 53.515L110.532 52.946L114.765 45.2882L111.911 43.71L112.405 42.8156L119.144 46.5408L118.649 47.4352L115.795 45.8571ZM123.935 52.1004L124.915 52.6423L117.518 58.6153C117.345 58.7543 117.178 58.8644 117.016 58.9454C116.849 59.0346 116.682 59.0862 116.514 59.1001C116.342 59.1222 116.159 59.1063 115.965 59.0523C115.766 59.0065 115.548 58.9181 115.311 58.7872L114.38 58.2724L114.841 57.4393L116.311 58.252L117.984 56.905L118.862 49.2964L119.867 49.8518L119.47 53.0876L119.086 56.0106L119.135 56.0377L121.406 54.1577L123.935 52.1004ZM126.724 53.642L127.704 54.1839L127.135 55.2131L127.184 55.2402C128.026 54.6818 128.892 54.6487 129.782 55.1409C130.558 55.5698 131.002 56.1939 131.115 57.0132C131.235 57.837 131.006 58.7717 130.428 59.8172C129.851 60.8628 129.181 61.5536 128.419 61.8897C127.665 62.2304 126.901 62.1862 126.125 61.7573C125.234 61.2651 124.802 60.514 124.827 59.5041L124.778 59.477L122.854 62.9567L121.874 62.4149L126.724 53.642ZM126.226 60.6774C126.798 60.9934 127.333 61.0657 127.834 60.8942C128.346 60.7191 128.761 60.3456 129.077 59.7738L129.673 58.6956C129.989 58.1238 130.082 57.5784 129.953 57.0592C129.837 56.5364 129.493 56.1169 128.921 55.8008C128.701 55.6789 128.477 55.5924 128.249 55.5412C128.022 55.49 127.803 55.4809 127.592 55.514C127.387 55.5389 127.194 55.6082 127.013 55.7219C126.846 55.832 126.704 55.9932 126.586 56.2056L125.326 58.4845C125.209 58.6969 125.146 58.9074 125.137 59.1159C125.141 59.3208 125.185 59.521 125.269 59.7166C125.357 59.9041 125.484 60.0806 125.648 60.2462C125.813 60.4117 126.005 60.5554 126.226 60.6774ZM133.116 65.622C132.659 65.3692 132.289 65.0635 132.007 64.7051C131.734 64.3513 131.545 63.9591 131.442 63.5288C131.351 63.0947 131.347 62.6392 131.429 62.1622C131.516 61.677 131.698 61.1853 131.973 60.687C132.253 60.1806 132.575 59.7615 132.94 59.4298C133.313 59.1027 133.705 58.8662 134.116 58.7203C134.532 58.5662 134.958 58.5086 135.395 58.5476C135.84 58.591 136.279 58.7324 136.712 58.9718C137.137 59.2066 137.478 59.4964 137.735 59.8412C138.001 60.1906 138.179 60.5719 138.271 60.985C138.367 61.3901 138.376 61.8166 138.299 62.2646C138.222 62.7126 138.06 63.1612 137.811 63.6104L137.554 64.076L132.874 61.4887L132.711 61.7828C132.557 62.0605 132.46 62.3427 132.419 62.6292C132.378 62.9158 132.392 63.19 132.46 63.4518C132.537 63.7182 132.667 63.9658 132.849 64.1948C133.045 64.4201 133.289 64.614 133.584 64.7766C134.008 65.0114 134.43 65.1166 134.849 65.0921C135.268 65.0676 135.653 64.929 136.006 64.6763L136.458 65.566C136.036 65.8869 135.527 66.0643 134.933 66.0982C134.351 66.1284 133.745 65.9697 133.116 65.622ZM136.265 59.7804C135.996 59.6314 135.72 59.5427 135.437 59.5143C135.154 59.4859 134.879 59.51 134.613 59.5868C134.355 59.668 134.111 59.8 133.882 59.9827C133.666 60.1617 133.481 60.3901 133.327 60.6678L133.28 60.7536L136.907 62.7584L136.981 62.6236C137.135 62.3459 137.23 62.0678 137.266 61.7895C137.311 61.5156 137.301 61.2541 137.236 61.0049C137.184 60.7521 137.072 60.5198 136.901 60.308C136.739 60.1008 136.527 59.9249 136.265 59.7804ZM140.328 69.6087C139.56 69.1843 139.008 68.6977 138.672 68.1491C138.339 67.5922 138.136 67.0052 138.061 66.3881L139.147 66.1886C139.252 66.7903 139.432 67.2949 139.686 67.7023C139.949 68.1142 140.338 68.4624 140.853 68.7468C141.473 69.09 142.026 69.2089 142.511 69.1037C142.996 68.9984 143.38 68.6884 143.665 68.1738C143.895 67.7572 143.955 67.3691 143.845 67.0095C143.739 66.6416 143.419 66.2462 142.885 65.823L142.017 65.1354C141.641 64.8316 141.351 64.5272 141.146 64.2221C140.95 63.9216 140.822 63.6218 140.764 63.3228C140.709 63.0156 140.713 62.7191 140.775 62.4334C140.842 62.1396 140.949 61.8579 141.098 61.5883C141.532 60.8041 142.117 60.3542 142.852 60.2384C143.588 60.1226 144.393 60.3063 145.267 60.7894C145.953 61.1687 146.466 61.6014 146.805 62.0875C147.153 62.5781 147.354 63.1107 147.41 63.6853L146.341 63.9106C146.276 63.4693 146.13 63.058 145.904 62.6768C145.677 62.2957 145.298 61.9583 144.767 61.6648C144.187 61.3442 143.675 61.2207 143.229 61.2942C142.783 61.3676 142.424 61.6494 142.153 62.1395C141.941 62.5234 141.882 62.9011 141.975 63.2726C142.081 63.6404 142.407 64.0445 142.953 64.4848L143.783 65.1521C144.159 65.4559 144.45 65.7603 144.654 66.0654C144.859 66.3705 144.991 66.6725 145.049 66.9716C145.116 67.2751 145.116 67.5738 145.05 67.8677C144.983 68.1615 144.873 68.4473 144.72 68.725C144.282 69.5174 143.677 69.9937 142.906 70.154C142.143 70.3187 141.284 70.137 140.328 69.6087ZM147.92 73.8053C147.463 73.5525 147.097 73.2491 146.823 72.8952C146.562 72.5377 146.388 72.1483 146.301 71.7269C146.214 71.3056 146.218 70.8545 146.314 70.3739C146.417 69.8977 146.606 69.4105 146.882 68.9123C147.157 68.414 147.473 67.9968 147.829 67.6606C148.186 67.3244 148.566 67.0811 148.969 66.9307C149.376 66.7721 149.799 66.7123 150.236 66.7512C150.673 66.7902 151.116 66.9338 151.565 67.1822C152.178 67.5208 152.602 67.931 152.836 68.4128C153.071 68.8946 153.159 69.4016 153.099 69.9339L152.085 69.917C152.151 69.527 152.099 69.1677 151.929 68.839C151.767 68.5148 151.49 68.2443 151.098 68.0276C150.812 67.8696 150.528 67.7763 150.245 67.7479C149.974 67.7159 149.714 67.7427 149.464 67.8285C149.214 67.9142 148.983 68.0529 148.77 68.2447C148.566 68.4409 148.387 68.6779 148.233 68.9556L147.637 70.0338C147.484 70.3116 147.378 70.5892 147.321 70.8667C147.272 71.1488 147.277 71.4184 147.338 71.6758C147.398 71.9331 147.515 72.174 147.69 72.3984C147.869 72.6147 148.106 72.8041 148.4 72.9667C148.824 73.2015 149.23 73.2976 149.616 73.2551C150.002 73.2126 150.371 73.0649 150.724 72.8122L151.159 73.6761C150.736 73.997 150.248 74.1857 149.694 74.2422C149.148 74.3031 148.557 74.1575 147.92 73.8053ZM152.856 75.254L154.706 76.2767L157.28 71.6208L155.429 70.598L155.89 69.7649L158.72 71.3294L157.84 72.9223L157.901 72.9561C158.307 72.5301 158.767 72.2776 159.28 72.1985C159.805 72.1158 160.35 72.2302 160.914 72.5418L161.796 73.0295L161.254 74.0097L160.065 73.3527C159.502 73.0411 158.954 72.9516 158.422 73.0842C157.899 73.2213 157.49 73.5553 157.196 74.0863L155.686 76.8186L158.137 78.1732L157.676 79.0064L152.395 76.0872L152.856 75.254ZM167.133 74.1564C166.847 73.9983 166.679 73.8305 166.628 73.653C166.581 73.4672 166.608 73.2845 166.707 73.1048L166.815 72.9087C166.915 72.729 167.053 72.6136 167.231 72.5625C167.413 72.5032 167.647 72.5525 167.933 72.7106C168.218 72.8686 168.385 73.0405 168.431 73.2262C168.482 73.4038 168.458 73.5824 168.359 73.7621L168.251 73.9582C168.151 74.1379 168.011 74.2574 167.829 74.3167C167.651 74.3679 167.419 74.3144 167.133 74.1564ZM160.558 79.5116L162.837 80.7714L165.411 76.1154L163.132 74.8556L163.592 74.0225L166.851 75.8241L163.817 81.3132L165.949 82.4918L165.488 83.3249L160.097 80.3448L160.558 79.5116ZM170.804 78.0091L171.784 78.551L171.215 79.5802L171.264 79.6073C172.106 79.0489 172.972 79.0158 173.863 79.508C174.639 79.9369 175.083 80.561 175.195 81.3803C175.316 82.2041 175.087 83.1388 174.509 84.1843C173.931 85.2299 173.261 85.9207 172.5 86.2568C171.746 86.5975 170.981 86.5533 170.205 86.1244C169.315 85.6322 168.882 84.8811 168.907 83.8712L168.858 83.8441L166.935 87.3238L165.955 86.782L170.804 78.0091ZM170.306 85.0445C170.878 85.3605 171.414 85.4328 171.914 85.2613C172.427 85.0862 172.841 84.7127 173.157 84.1409L173.753 83.0627C174.069 82.4909 174.163 81.9454 174.034 81.4263C173.918 80.9034 173.574 80.484 173.002 80.1679C172.782 80.046 172.557 79.9595 172.33 79.9083C172.102 79.8571 171.883 79.848 171.673 79.8811C171.467 79.906 171.274 79.9753 171.094 80.089C170.927 80.1991 170.784 80.3603 170.667 80.5727L169.407 82.8516C169.29 83.064 169.227 83.2745 169.218 83.483C169.222 83.6879 169.266 83.8881 169.35 84.0837C169.438 84.2712 169.564 84.4477 169.729 84.6133C169.893 84.7788 170.086 84.9225 170.306 85.0445ZM177.474 89.9505C176.992 89.684 176.711 89.3528 176.632 88.9569C176.56 88.5654 176.642 88.1573 176.877 87.7325L179.112 83.6892L177.004 82.5242L177.465 81.691L179.033 82.558C179.245 82.6754 179.415 82.7158 179.542 82.6793C179.681 82.6391 179.81 82.5128 179.927 82.3004L180.842 80.6463L181.785 81.1679L180.552 83.3978L183.432 84.9895L182.971 85.8227L180.092 84.231L177.518 88.887L180.397 90.4787L179.937 91.3118L177.474 89.9505Z" fill="#0013FF"/>
<rect x="104.691" y="24.0081" width="115" height="35" rx="17.5" transform="rotate(28.9332 104.691 24.0081)" stroke="#0013FF"/>
<path d="M147.112 28.8605C145.947 29.123 144.982 28.8955 144.217 28.178C143.462 27.4584 142.905 26.3019 142.546 24.7085C142.187 23.1151 142.194 21.8314 142.568 20.8574C142.951 19.8814 143.725 19.2622 144.891 18.9996C145.328 18.9011 145.719 18.8752 146.064 18.9218C146.41 18.9684 146.719 19.0662 146.991 19.2152C147.264 19.3642 147.507 19.5488 147.719 19.7689C147.929 19.9798 148.122 20.1994 148.298 20.4277L147.416 21.1C147.287 20.909 147.147 20.7348 146.997 20.5773C146.845 20.4107 146.676 20.2765 146.49 20.1748C146.312 20.062 146.108 19.9882 145.88 19.9534C145.662 19.9166 145.407 19.931 145.115 19.9966C144.36 20.1669 143.86 20.5809 143.616 21.2386C143.381 21.8943 143.371 22.7001 143.586 23.6562L143.937 25.2131C144.152 26.1692 144.507 26.893 145 27.3846C145.503 27.8741 146.132 28.0337 146.888 27.8635C147.179 27.7978 147.416 27.7015 147.597 27.5744C147.788 27.4453 147.941 27.296 148.056 27.1266C148.178 26.9461 148.273 26.7524 148.341 26.5457C148.408 26.3299 148.458 26.108 148.493 25.8802L149.578 26.1093C149.519 26.4 149.44 26.6858 149.34 26.9665C149.241 27.2472 149.1 27.5133 148.918 27.7649C148.735 28.0165 148.498 28.2374 148.206 28.4276C147.914 28.6177 147.549 28.762 147.112 28.8605ZM152.21 24.4401L150.407 24.8462L150.204 23.9448L152.171 23.5017L152.072 21.6008L150.283 22.0039L150.08 21.1025L152.033 20.6625L151.888 17.5955L152.885 17.3709L153.352 27.2825L152.355 27.5071L152.21 24.4401ZM154.401 17.0294L155.398 16.8048L155.543 19.8718L157.346 19.4656L157.549 20.367L155.583 20.8101L155.681 22.711L157.47 22.3079L157.673 23.2094L155.72 23.6493L155.865 26.7163L154.868 26.9409L154.401 17.0294Z" fill="#0013FF"/>
<rect x="122.598" y="11.1469" width="48" height="35" rx="17.5" transform="rotate(-12.6957 122.598 11.1469)" stroke="#0013FF"/>
<rect y="69" width="83" height="36" rx="18" fill="#0013FF"/>
<path d="M17.26 92V82.228H20.816C21.7213 82.228 22.412 82.4753 22.888 82.97C23.364 83.4647 23.602 84.1553 23.602 85.042C23.602 85.9287 23.364 86.6193 22.888 87.114C22.412 87.6087 21.7213 87.856 20.816 87.856H18.436V92H17.26ZM18.436 86.834H20.788C21.2827 86.834 21.6653 86.7127 21.936 86.47C22.216 86.218 22.356 85.8633 22.356 85.406V84.678C22.356 84.2207 22.216 83.8707 21.936 83.628C21.6653 83.376 21.2827 83.25 20.788 83.25H18.436V86.834ZM30.9325 84.776H32.0525L28.4685 93.582C28.3845 93.7873 28.2912 93.9647 28.1885 94.114C28.0859 94.2727 27.9645 94.3987 27.8245 94.492C27.6845 94.5947 27.5165 94.6693 27.3205 94.716C27.1245 94.772 26.8912 94.8 26.6205 94.8H25.5565V93.848H27.2365L28.0485 91.86L25.1365 84.776H26.2845L27.5025 87.8L28.5805 90.544H28.6365L29.7145 87.8L30.9325 84.776ZM37.3391 92C36.7884 92 36.3824 91.846 36.1211 91.538C35.8691 91.23 35.7431 90.8333 35.7431 90.348V85.728H33.3351V84.776H35.1271C35.3697 84.776 35.5377 84.7293 35.6311 84.636C35.7337 84.5333 35.7851 84.3607 35.7851 84.118V82.228H36.8631V84.776H40.1531V85.728H36.8631V91.048H40.1531V92H37.3391ZM42.5556 81.64H43.6756V85.952H43.7316C43.8063 85.7747 43.8996 85.6067 44.0116 85.448C44.1236 85.28 44.2589 85.1353 44.4176 85.014C44.5856 84.8927 44.7816 84.7947 45.0056 84.72C45.2296 84.6453 45.4909 84.608 45.7896 84.608C46.5456 84.608 47.1523 84.8507 47.6096 85.336C48.0669 85.812 48.2956 86.4887 48.2956 87.366V92H47.1756V87.562C47.1756 86.8993 47.0309 86.4093 46.7416 86.092C46.4523 85.7653 46.0276 85.602 45.4676 85.602C45.2436 85.602 45.0243 85.63 44.8096 85.686C44.5949 85.742 44.4036 85.826 44.2356 85.938C44.0676 86.05 43.9323 86.1947 43.8296 86.372C43.7269 86.5493 43.6756 86.7547 43.6756 86.988V92H42.5556V81.64ZM53.7781 92.168C53.2741 92.168 52.8168 92.0793 52.4061 91.902C52.0048 91.7247 51.6595 91.4727 51.3701 91.146C51.0901 90.81 50.8755 90.4133 50.7261 89.956C50.5768 89.4893 50.5021 88.9667 50.5021 88.388C50.5021 87.8187 50.5768 87.3007 50.7261 86.834C50.8755 86.3673 51.0901 85.9707 51.3701 85.644C51.6595 85.308 52.0048 85.0513 52.4061 84.874C52.8168 84.6967 53.2741 84.608 53.7781 84.608C54.2821 84.608 54.7348 84.6967 55.1361 84.874C55.5468 85.0513 55.8921 85.308 56.1721 85.644C56.4615 85.9707 56.6808 86.3673 56.8301 86.834C56.9795 87.3007 57.0541 87.8187 57.0541 88.388C57.0541 88.9667 56.9795 89.4893 56.8301 89.956C56.6808 90.4133 56.4615 90.81 56.1721 91.146C55.8921 91.4727 55.5468 91.7247 55.1361 91.902C54.7348 92.0793 54.2821 92.168 53.7781 92.168ZM53.7781 91.202C54.4035 91.202 54.9075 91.0153 55.2901 90.642C55.6728 90.2687 55.8641 89.69 55.8641 88.906V87.87C55.8641 87.086 55.6728 86.5073 55.2901 86.134C54.9075 85.7607 54.4035 85.574 53.7781 85.574C53.1528 85.574 52.6488 85.7607 52.2661 86.134C51.8835 86.5073 51.6921 87.086 51.6921 87.87V88.906C51.6921 89.69 51.8835 90.2687 52.2661 90.642C52.6488 91.0153 53.1528 91.202 53.7781 91.202ZM59.3447 92V84.776H60.4647V85.952H60.5207C60.5953 85.7747 60.6887 85.6067 60.8007 85.448C60.9127 85.28 61.048 85.1353 61.2067 85.014C61.3747 84.8927 61.5707 84.7947 61.7947 84.72C62.0187 84.6453 62.28 84.608 62.5787 84.608C63.3347 84.608 63.9413 84.8507 64.3987 85.336C64.856 85.812 65.0847 86.4887 65.0847 87.366V92H63.9647V87.562C63.9647 86.8993 63.82 86.4093 63.5307 86.092C63.2413 85.7653 62.8167 85.602 62.2567 85.602C62.0327 85.602 61.8133 85.63 61.5987 85.686C61.384 85.742 61.1927 85.826 61.0247 85.938C60.8567 86.05 60.7213 86.1947 60.6187 86.372C60.516 86.5493 60.4647 86.7547 60.4647 86.988V92H59.3447Z" fill="white"/>
<rect x="28" y="45.103" width="66" height="36" rx="18" transform="rotate(-30.8824 28 45.103)" fill="#0013FF"/>
<path d="M54.2886 44.7939L58.0037 51.0057C58.2145 51.3582 58.346 51.7145 58.3983 52.0747C58.4506 52.4349 58.4245 52.7823 58.32 53.1166C58.2235 53.4462 58.0566 53.7581 57.8193 54.0523C57.5772 54.3385 57.2759 54.5894 56.9154 54.8049C56.2746 55.1882 55.6477 55.3402 55.0348 55.2609C54.4171 55.1735 53.8645 54.8678 53.377 54.3437L54.2161 53.5646C54.3567 53.7089 54.5046 53.8379 54.6597 53.9518C54.818 54.0529 54.9868 54.1259 55.166 54.171C55.3484 54.2033 55.5429 54.2011 55.7495 54.1646C55.956 54.1281 56.1754 54.0404 56.4077 53.9014C56.8643 53.6284 57.1401 53.2894 57.2351 52.8846C57.3333 52.467 57.2172 51.9818 56.8866 51.4291L53.8039 46.2746L50.7761 48.0855L50.2515 47.2084L54.2886 44.7939ZM66.5207 48.8646L64.3818 46.8975L61.4381 48.6581L62.1592 51.473L61.1139 52.0982L58.6694 42.1739L60.0031 41.3762L67.5901 48.225L66.5207 48.8646ZM60.0178 42.8192L59.9097 42.8839L61.1538 47.6372L63.6169 46.1641L60.0178 42.8192ZM70.8655 46.2661L63.3626 39.367L64.432 38.7275L68.1293 42.2093L70.9275 44.8424L70.9876 44.8064L69.9917 41.0955L68.6733 36.1908L69.7066 35.5728L72.2352 45.4469L70.8655 46.2661ZM80.9295 40.2471L78.7906 38.2801L75.8469 40.0406L76.568 42.8556L75.5227 43.4808L73.0781 33.5564L74.4118 32.7588L81.9988 39.6076L80.9295 40.2471ZM74.4266 34.2018L74.3184 34.2665L75.5626 39.0198L78.0257 37.5467L74.4266 34.2018Z" fill="white"/>
<rect x="176.488" y="21" width="116" height="36" rx="18" transform="rotate(30.9011 176.488 21)" fill="#0013FF"/>
<path d="M189.19 44.0186L185.473 50.2292C185.262 50.5815 185.01 50.8659 184.717 51.0823C184.424 51.2987 184.106 51.44 183.762 51.506C183.426 51.5768 183.072 51.5771 182.701 51.5071C182.334 51.4291 181.971 51.2822 181.61 51.0665C180.97 50.6831 180.539 50.2025 180.319 49.625C180.104 49.0393 180.112 48.4079 180.344 47.7306L181.427 48.1015C181.366 48.2937 181.323 48.485 181.296 48.6755C181.281 48.8628 181.297 49.046 181.342 49.2253C181.4 49.4013 181.493 49.5716 181.623 49.7364C181.753 49.9011 181.934 50.053 182.166 50.192C182.623 50.4652 183.052 50.5479 183.454 50.4403C183.868 50.3294 184.241 49.9976 184.571 49.445L187.656 44.2916L184.629 42.4797L185.153 41.6028L189.19 44.0186ZM191.554 56.8224C191.178 56.5971 190.967 56.3404 190.922 56.0524C190.877 55.7643 190.921 55.4641 191.053 55.1519L190.993 55.1159C190.641 55.3948 190.251 55.5473 189.822 55.5734C189.406 55.5962 188.945 55.4567 188.441 55.1547C187.792 54.7665 187.376 54.2891 187.193 53.7227C187.01 53.1563 187.093 52.5807 187.443 51.9961C187.788 51.4195 188.263 51.0997 188.866 51.0366C189.477 50.9783 190.252 51.2295 191.189 51.7903L192.51 52.5812L192.877 51.9686C193.15 51.5121 193.226 51.095 193.103 50.7174C192.986 50.3318 192.691 49.9976 192.219 49.7148C191.802 49.4655 191.412 49.3459 191.047 49.3559C190.687 49.3579 190.343 49.4511 190.015 49.6355L189.654 48.7668C189.829 48.6545 190.031 48.5631 190.258 48.4924C190.486 48.4217 190.733 48.3903 191 48.398C191.272 48.3977 191.556 48.4422 191.85 48.5315C192.15 48.6128 192.455 48.7469 192.768 48.9338C193.497 49.37 193.963 49.8993 194.167 50.5218C194.379 51.149 194.288 51.791 193.895 52.4477L191.853 55.8593L192.718 56.3769L192.215 57.2178L191.554 56.8224ZM189.091 54.4505C189.339 54.5991 189.58 54.7053 189.814 54.7691C190.06 54.8296 190.288 54.8574 190.498 54.8524C190.713 54.8393 190.901 54.7887 191.062 54.7005C191.237 54.609 191.372 54.4832 191.468 54.3231L192.079 53.302L190.757 52.5111C190.181 52.166 189.712 51.9944 189.352 51.9964C188.992 51.9984 188.721 52.1516 188.539 52.4559L188.388 52.7082C188.196 53.0285 188.162 53.3399 188.286 53.6423C188.422 53.9414 188.69 54.2109 189.091 54.4505ZM195.802 59.3648L197.29 51.8361L198.263 52.4185L197.599 55.5453L196.885 58.9194L196.933 58.9482L199.569 56.7244L202.011 54.6617L202.96 55.2297L197.027 60.0981L195.802 59.3648ZM205.96 65.4446C205.584 65.2193 205.373 64.9626 205.328 64.6745C205.283 64.3865 205.327 64.0863 205.459 63.774L205.399 63.7381C205.047 64.017 204.657 64.1695 204.228 64.1955C203.812 64.2184 203.351 64.0788 202.847 63.7769C202.198 63.3886 201.782 62.9113 201.599 62.3449C201.416 61.7784 201.499 61.2029 201.849 60.6183C202.194 60.0417 202.669 59.7218 203.272 59.6587C203.883 59.6004 204.658 59.8517 205.595 60.4125L206.916 61.2034L207.283 60.5907C207.556 60.1342 207.631 59.7172 207.509 59.3396C207.392 58.9539 207.097 58.6197 206.625 58.3369C206.208 58.0877 205.818 57.9681 205.453 57.9781C205.093 57.9801 204.749 58.0733 204.421 58.2577L204.059 57.3889C204.235 57.2767 204.437 57.1852 204.664 57.1146C204.891 57.0439 205.139 57.0124 205.406 57.0201C205.678 57.0198 205.962 57.0643 206.256 57.1536C206.556 57.2349 206.861 57.3691 207.174 57.556C207.903 57.9922 208.369 58.5215 208.573 59.1439C208.785 59.7711 208.694 60.4131 208.301 61.0698L206.259 64.4814L207.124 64.9991L206.621 65.84L205.96 65.4446ZM203.497 63.0727C203.745 63.2213 203.986 63.3274 204.22 63.3912C204.466 63.4518 204.694 63.4795 204.904 63.4745C205.119 63.4615 205.307 63.4108 205.468 63.3226C205.643 63.2312 205.778 63.1054 205.873 62.9452L206.485 61.9241L205.163 61.1333C204.587 60.7882 204.118 60.6166 203.758 60.6186C203.398 60.6206 203.127 60.7737 202.945 61.0781L202.794 61.3303C202.602 61.6507 202.568 61.962 202.691 62.2644C202.828 62.5636 203.096 62.833 203.497 63.0727ZM210.71 68.4834C209.958 68.0328 209.422 67.5276 209.105 66.9677C208.792 66.3998 208.609 65.8062 208.556 65.1868L209.648 65.0247C209.732 65.6297 209.894 66.1401 210.135 66.556C210.383 66.9767 210.76 67.3381 211.264 67.64C211.873 68.0043 212.421 68.1422 212.909 68.0536C213.397 67.965 213.792 67.6685 214.094 67.164C214.339 66.7555 214.412 66.3697 214.314 66.0064C214.221 65.6352 213.915 65.229 213.396 64.7877L212.552 64.0708C212.187 63.7542 211.907 63.44 211.713 63.1281C211.527 62.821 211.41 62.517 211.361 62.2161C211.318 61.9072 211.332 61.6111 211.404 61.3277C211.48 61.0363 211.598 60.7585 211.756 60.4942C212.216 59.7254 212.816 59.2957 213.555 59.2053C214.294 59.1148 215.093 59.3261 215.95 59.8389C216.622 60.2416 217.12 60.6916 217.442 61.189C217.772 61.6913 217.955 62.2305 217.991 62.8067L216.916 62.9952C216.866 62.5518 216.734 62.1358 216.521 61.7471C216.307 61.3584 215.94 61.0082 215.42 60.6967C214.851 60.3563 214.343 60.2152 213.895 60.2734C213.447 60.3315 213.079 60.6008 212.791 61.0813C212.566 61.4577 212.494 61.8331 212.574 62.2076C212.667 62.5788 212.979 62.9939 213.509 63.4527L214.317 64.1481C214.682 64.4646 214.962 64.7788 215.156 65.0907C215.35 65.4027 215.471 65.7091 215.519 66.0099C215.576 66.3156 215.566 66.6141 215.489 66.9055C215.413 67.1969 215.293 67.4788 215.13 67.7511C214.665 68.5279 214.044 68.9832 213.268 69.1169C212.5 69.2554 211.647 69.0442 210.71 68.4834ZM218.154 72.9383C217.705 72.6698 217.35 72.3541 217.089 71.991C216.84 71.6248 216.68 71.2296 216.608 70.8055C216.535 70.3814 216.555 69.9308 216.666 69.4537C216.786 68.9813 216.992 68.5009 217.284 68.0124C217.576 67.5239 217.906 67.1178 218.274 66.794C218.642 66.4703 219.03 66.2402 219.438 66.1037C219.851 65.9592 220.275 65.9139 220.71 65.9678C221.146 66.0218 221.584 66.1806 222.024 66.4442C222.625 66.8037 223.034 67.2282 223.252 67.7178C223.471 68.2073 223.541 68.717 223.463 69.247L222.45 69.1952C222.529 68.8078 222.49 68.4469 222.331 68.1125C222.18 67.783 221.912 67.5031 221.528 67.2731C221.248 67.1053 220.967 67.0024 220.685 66.9643C220.416 66.9229 220.155 66.9408 219.902 67.0179C219.649 67.095 219.414 67.2258 219.194 67.4101C218.983 67.5992 218.796 67.8299 218.633 68.1022L218.001 69.1593C217.838 69.4316 217.723 69.7054 217.656 69.9808C217.597 70.261 217.593 70.5307 217.645 70.7899C217.696 71.0492 217.805 71.294 217.972 71.5243C218.144 71.7466 218.373 71.944 218.662 72.1166C219.078 72.3658 219.48 72.4758 219.867 72.4466C220.255 72.4174 220.629 72.2825 220.991 72.042L221.395 72.9203C220.962 73.2265 220.467 73.3983 219.912 73.4357C219.364 73.478 218.778 73.3121 218.154 72.9383ZM223.037 74.5556L224.851 75.6412L227.583 71.0764L225.769 69.9907L226.258 69.1739L229.033 70.8347L228.098 72.3964L228.158 72.4323C228.579 72.0205 229.047 71.7839 229.562 71.7225C230.09 71.6579 230.63 71.7909 231.183 72.1217L232.048 72.6393L231.473 73.6004L230.308 72.903C229.755 72.5722 229.211 72.464 228.674 72.5782C228.146 72.6972 227.727 73.017 227.415 73.5376L225.812 76.2164L228.214 77.6544L227.725 78.4713L222.548 75.3724L223.037 74.5556ZM237.344 73.9489C237.063 73.7811 236.901 73.6076 236.856 73.4284C236.815 73.2412 236.848 73.0595 236.954 72.8833L237.069 72.6911C237.174 72.5149 237.316 72.4043 237.496 72.3593C237.68 72.3062 237.912 72.3636 238.192 72.5314C238.472 72.6991 238.633 72.8766 238.673 73.0639C238.718 73.2431 238.688 73.4208 238.582 73.597L238.467 73.7892C238.362 73.9654 238.217 74.08 238.033 74.133C237.854 74.178 237.624 74.1166 237.344 73.9489ZM230.588 79.0752L232.822 80.4125L235.555 75.8476L233.32 74.5103L233.809 73.6934L237.005 75.6059L233.783 80.9876L235.874 82.2387L235.385 83.0555L230.099 79.892L230.588 79.0752ZM240.88 77.9254L241.841 78.5006L241.237 79.5097L241.285 79.5384C242.146 79.0093 243.012 79.0059 243.885 79.5284C244.646 79.9837 245.069 80.6227 245.153 81.4454C245.245 82.2728 244.984 83.1991 244.371 84.2242C243.757 85.2493 243.064 85.9167 242.291 86.2265C241.526 86.541 240.764 86.4706 240.003 86.0153C239.13 85.4928 238.723 84.7274 238.783 83.7189L238.735 83.6901L236.693 87.1018L235.732 86.5266L240.88 77.9254ZM240.141 84.9395C240.702 85.275 241.235 85.3657 241.74 85.2115C242.259 85.054 242.686 84.695 243.021 84.1344L243.654 83.0773C243.989 82.5167 244.102 81.9748 243.991 81.4515C243.892 80.925 243.563 80.4939 243.002 80.1584C242.786 80.029 242.565 79.9348 242.339 79.8758C242.114 79.8168 241.895 79.8003 241.684 79.8261C241.477 79.844 241.282 79.9066 241.098 80.014C240.927 80.1183 240.779 80.2745 240.655 80.4827L239.317 82.7171C239.193 82.9253 239.123 83.1335 239.107 83.3416C239.104 83.5465 239.141 83.7481 239.218 83.9465C239.3 84.1369 239.42 84.3176 239.579 84.4887C239.737 84.6598 239.925 84.8101 240.141 84.9395ZM247.136 90.0887C246.663 89.8059 246.394 89.4653 246.328 89.0668C246.27 88.6731 246.366 88.268 246.615 87.8516L248.987 83.8874L246.921 82.6507L247.41 81.8339L248.948 82.7542C249.156 82.8788 249.324 82.925 249.452 82.8929C249.593 82.8575 249.726 82.7357 249.85 82.5275L250.821 80.9058L251.746 81.4594L250.437 83.6457L253.26 85.3353L252.772 86.1522L249.949 84.4626L247.216 89.0274L250.039 90.717L249.55 91.5339L247.136 90.0887Z" fill="white"/>
</svg>
