<svg width="159" height="22" viewBox="0 0 159 22" fill="none" xmlns="http://www.w3.org/2000/svg">
<g clip-path="url(#clip0_173_958)">
<path d="M109.248 0.02775L105.218 0.0388527V21.9833H123.697C125.718 21.073 126.801 19.4994 127.219 17.6622H109.237L109.248 0.02775ZM139.402 4.41276H154.816C156.958 3.96316 158.553 1.9566 159 0.0166492H135.216C135.66 1.9566 137.279 3.96316 139.402 4.41276ZM89.4821 4.35171C91.6237 3.69118 93.4279 1.9566 93.8672 0.0333004H71.2489V12.9996H89.7619V17.5512L75.2417 17.565C72.9642 18.2367 71.0397 19.8574 70.0749 22L71.2489 21.9778H93.7417V8.68954H75.2417V4.35171H89.4821ZM135.838 21.9778H139.846V13.1439H154.44V21.9778H158.446V8.7284L135.838 8.70619V21.9778ZM40.0958 4.39889H55.5076C57.6518 3.94651 59.2442 1.93995 59.6914 -3.8147e-06H35.9095C36.354 1.93995 37.97 3.94651 40.0958 4.39889ZM0 0.0499516C0.462825 1.97048 2.02911 3.92708 4.17589 4.42109H10.6633L10.9927 4.55986V21.9334H15.0457V4.55986L15.4118 4.42109H21.907C24.0747 3.82717 25.607 1.97048 26.0646 0.0499516V0.00832367H0V0.0499516ZM40.0958 21.9806H55.5076C57.6518 21.5254 59.2442 19.5244 59.6914 17.5817H35.9095C36.354 19.5244 37.97 21.5254 40.0958 21.9806ZM40.0958 13.0718H55.5076C57.6518 12.6222 59.2442 10.6156 59.6914 8.67566H35.9095C36.354 10.6156 37.97 12.6222 40.0958 13.0718Z" fill="#E82127"/>
</g>
<defs>
<clipPath id="clip0_173_958">
<rect width="159" height="22" fill="white"/>
</clipPath>
</defs>
</svg>
