<svg width="110" height="26" viewBox="0 0 110 26" fill="none" xmlns="http://www.w3.org/2000/svg">
<g clip-path="url(#clip0_173_952)">
<path d="M9.48276 10.3582V9.37483C9.11059 9.32074 8.73469 9.29111 8.35791 9.28615C4.71026 9.27909 1.48084 11.4472 0.385494 14.6386C-0.709848 17.8299 0.583079 21.3039 3.57733 23.2147C1.33442 21.013 0.711639 17.8078 1.98717 15.0309C3.2627 12.254 6.19833 10.4239 9.48276 10.3582Z" fill="#25F4EE"/>
<path d="M9.49665 21.3571C11.3922 21.3546 12.9503 19.8614 13.0333 17.9678V1.0699H16.1207C16.0577 0.716818 16.0276 0.358646 16.0309 0H11.8081V16.8815C11.7379 18.7848 10.1761 20.2923 8.27149 20.2954C7.70232 20.2906 7.14243 20.1506 6.63794 19.8871C7.30109 20.8058 8.36354 21.3522 9.49665 21.3571Z" fill="#25F4EE"/>
<path d="M22.7587 6.49972V5.58311C21.4091 5.58348 20.0896 5.25628 18.9656 4.64258C19.9509 5.58368 21.2824 6.23559 22.7587 6.49972Z" fill="#25F4EE"/>
<path d="M18.9654 4.643C17.9347 3.6159 17.3665 2.29561 17.3669 0.928711H16.1206C16.4459 2.45606 17.4746 3.79917 18.9654 4.643Z" fill="#FE2C55"/>
<path d="M8.19788 13.4833C6.60376 13.4919 5.21979 14.6504 4.84118 16.293C4.46257 17.9356 5.18649 19.6407 6.59699 20.4286C5.83272 19.3094 5.72476 17.83 6.31753 16.5993C6.91031 15.3686 8.10367 14.5945 9.40655 14.5955C9.75394 14.6001 10.0989 14.6573 10.4311 14.7654V10.2993C10.0919 10.2454 9.74953 10.217 9.40655 10.2144H9.22244V13.6106C8.88856 13.5157 8.54342 13.4728 8.19788 13.4833Z" fill="#FE2C55"/>
<path d="M22.4421 6.5V9.8945C20.2709 9.89026 18.1561 9.19851 16.3972 7.9172V16.8363C16.3879 21.2868 12.8009 24.8897 8.37938 24.8897C6.73735 24.8927 5.13486 24.3826 3.79297 23.4301C6.0324 25.8544 9.5176 26.6525 12.5786 25.4418C15.6395 24.2311 17.6527 21.2583 17.6534 17.948V9.05436C19.4182 10.3273 21.5356 11.01 23.7068 11.0062V6.63578C23.2817 6.63442 22.8579 6.58892 22.4421 6.5Z" fill="#FE2C55"/>
<path d="M15.7559 17.0874V8.24682C17.5206 9.50957 19.6388 10.1864 21.8106 10.1815V6.81685C20.5275 6.54659 19.3673 5.86757 18.505 4.88217C17.113 3.98401 16.1524 2.55441 15.8487 0.928711H12.6611V18.3408C12.5974 19.8942 11.5543 21.2369 10.0622 21.6863C8.5701 22.1356 6.95641 21.593 6.04151 20.3343C4.55555 19.5537 3.7929 17.8645 4.19177 16.2372C4.59063 14.6099 6.04864 13.4622 7.72804 13.4536C8.09413 13.4569 8.45778 13.5135 8.80742 13.6218V10.2572C5.63807 10.3108 2.79981 12.2272 1.57236 15.1424C0.344911 18.0576 0.960151 21.4209 3.14068 23.7158C4.49609 24.6289 6.10123 25.1019 7.73647 25.0701C12.1589 25.0701 15.7466 21.4988 15.7559 17.0874Z" fill="#1C1C23"/>
<path d="M40.4182 10.2957H36.7298V24.1429H32.1149V10.2957H27.5088L27.5 6.5H41.7241L40.4182 10.2957Z" fill="#1C1C23"/>
<path d="M77.4304 10.2957H73.5142V24.1429H69.0115V10.2957H64.4915L64.4829 6.5H78.707L77.4304 10.2957Z" fill="#1C1C23"/>
<path d="M47.4135 24.1427H42.7088L42.6721 12.0713H47.4135V24.1427Z" fill="#1C1C23"/>
<path d="M52.9085 14.696L57.4197 10.6345H62.8472L57.1466 15.7357L63.5345 24.1429H58.5211L54.2566 18.3025L52.9085 19.5047V24.1429H48.3621V6.5H52.9085V14.696Z" fill="#1C1C23"/>
<path d="M99.4269 14.696L103.929 10.6345H109.357L103.656 15.7357L110 24.1429H104.987L100.731 18.3025L99.4269 19.5047V24.1429H94.8717L94.8276 6.5H99.4269V14.696Z" fill="#1C1C23"/>
<path d="M45.0428 11.1429C46.3521 11.1429 47.4135 10.1035 47.4135 8.82143C47.4135 7.53934 46.3521 6.5 45.0428 6.5C43.7335 6.5 42.6721 7.53934 42.6721 8.82143C42.6721 10.1035 43.7335 11.1429 45.0428 11.1429Z" fill="#1C1C23"/>
<path d="M77.599 17.6303C77.6003 13.7469 80.5605 10.5175 84.3968 10.2144C84.2049 10.2144 83.9463 10.2144 83.7545 10.2144C79.8557 10.4439 76.8105 13.7016 76.8105 17.6429C76.8105 21.5843 79.8557 24.842 83.7545 25.0715C83.9463 25.0715 84.2049 25.0715 84.3968 25.0715C80.5509 24.7676 77.5872 21.5234 77.599 17.6303Z" fill="#25F4EE"/>
<path d="M86.037 9.33655C85.824 9.33655 85.549 9.33655 85.345 9.33655C89.4121 9.65475 92.5419 12.8743 92.5419 16.7399C92.5419 20.6055 89.4121 23.8251 85.345 24.1433C85.549 24.1433 85.824 24.1433 86.037 24.1433C90.3682 24.1433 93.8795 20.8174 93.8795 16.7147C93.8795 12.612 90.3682 9.28613 86.037 9.28613V9.33655Z" fill="#FE2C55"/>
<path d="M85.3448 21.2564C83.3068 21.2564 81.6546 19.6386 81.6546 17.6429C81.6546 15.6473 83.3068 14.0295 85.3448 14.0295C87.3827 14.0295 89.0349 15.6473 89.0349 17.6429C89.0302 19.6367 87.3808 21.2518 85.3448 21.2564ZM85.3448 10.2144C81.155 10.2144 77.7585 13.5402 77.7585 17.6429C77.7585 21.7456 81.155 25.0715 85.3448 25.0715C89.5345 25.0715 92.931 21.7456 92.931 17.6429C92.931 15.6727 92.1317 13.7833 90.709 12.3901C89.2863 10.997 87.3567 10.2144 85.3448 10.2144Z" fill="#1C1C23"/>
</g>
<defs>
<clipPath id="clip0_173_952">
<rect width="110" height="26" fill="white"/>
</clipPath>
</defs>
</svg>
