<svg width="160" height="35" viewBox="0 0 160 35" fill="none" xmlns="http://www.w3.org/2000/svg">
<path d="M156.47 0L147.73 18.4489L144.443 11.4585H140.888L146.293 22.8929H149.166L160 0H156.47Z" fill="#D52B1E"/>
<path d="M118.977 34.2551H126.013V21.5475C126.013 18.6409 127.718 16.599 130.25 16.599C132.684 16.599 133.95 18.2805 133.95 20.7067V34.2551H140.986V19.3855C140.986 14.3409 137.918 10.7857 132.952 10.7857C129.787 10.7857 127.572 12.1309 125.916 14.5811H125.77V11.4583H118.953L118.977 34.2551ZM105.149 10.8337C97.7967 10.8337 92.8789 16.0465 92.8789 22.9168C92.8789 29.739 97.7967 34.9998 105.149 34.9998C112.502 34.9998 117.419 29.739 117.419 22.9168C117.444 16.0465 112.502 10.8337 105.149 10.8337ZM105.1 29.8591C101.765 29.8591 99.9878 27.0966 99.9878 22.9168C99.9878 18.6889 101.741 15.9744 105.1 15.9744C108.436 15.9744 110.286 18.6889 110.286 22.9168C110.31 27.0966 108.46 29.8591 105.1 29.8591ZM72.818 34.2551H92.5867V28.7781H81.3877V28.634L92.0998 16.7912V11.4343H72.818V16.9353H83.6519V17.0794L72.818 29.0183V34.2551ZM63.7858 34.2551H70.8704V11.4583H63.7858V34.2551ZM47.3524 34.2551H54.4127V23.7816C54.4127 19.0252 57.3098 16.9113 61.7164 17.5118H61.8624V11.5063C61.4973 11.3622 61.0834 11.3382 60.426 11.3382C57.675 11.3382 55.8247 12.5873 54.2422 15.2538H54.0962V11.4583H47.3524V34.2551ZM34.4005 29.8831C31.2842 29.8831 29.3853 27.8893 29.0201 24.8145H45.6726C45.7212 19.914 44.4066 15.9984 41.6555 13.5482C39.7079 11.7706 37.1516 10.7857 33.8892 10.7857C26.9264 10.7857 22.1059 15.9984 22.1059 22.8207C22.1059 29.691 26.7072 34.9277 34.3518 34.9277C37.2489 34.9277 39.5374 34.159 41.4364 32.8859C43.4571 31.5166 44.9178 29.4988 45.3074 27.505H38.5393C37.8819 28.9943 36.4699 29.8831 34.4005 29.8831ZM34.0353 15.7582C36.5186 15.7582 38.2228 17.5839 38.5149 20.2503H29.0688C29.6287 17.5599 31.1138 15.7582 34.0353 15.7582ZM8.03408 34.2551H15.4352L23.4693 11.4583H16.3847L11.8807 26.1117H11.7833L7.27937 11.4583H0L8.03408 34.2551ZM63.7858 3.33887H70.8704V9.53653H63.7858V3.33887Z" fill="black"/>
</svg>
